<?xml version="1.0" encoding="UTF-8"?>
<svg width="216px" height="60px" viewBox="0 0 216 60" version="1.1" xmlns="http://www.w3.org/2000/svg" xmlns:xlink="http://www.w3.org/1999/xlink">
    <!-- Generator: Sketch 52.5 (67469) - http://www.bohemiancoding.com/sketch -->
    <title>Privat_logo Copy</title>
    <desc>Created with Sketch.</desc>
    <g id="News" stroke="none" stroke-width="1" fill="none" fill-rule="evenodd">
        <g id="Privat_logo-Copy" fill="#FFFFFF">
            <path d="M29.576105,60 C46.3787582,60 60,46.5685425 60,30 C60,13.4314575 46.3787582,0 29.576105,0 C15.2403693,0 3.22044973,9.77703988 0,22.9378025 L6.07359509,29.7668668 L0.0877147228,37.4113932 C3.43373723,50.3955325 15.367451,60 29.576105,60 Z M28.0283019,11 C28.050708,11 28.0656442,11 28.0880503,11 L28.0880503,12.7924528 C28.0805822,13.4795597 28.4390728,14.1218563 29.0365571,14.4728769 C29.6340414,14.8164313 30.3659586,14.8164313 30.9634429,14.4728769 C31.5609272,14.1218563 31.9194178,13.4795597 31.9119497,12.7924528 L31.9119497,11 C35.7657233,11.3808967 39.2908805,12.8596693 42.1289308,15.1823899 L40.8144654,16.4968553 C40.2468553,16.9599066 39.9854555,17.699292 40.1497646,18.4162731 C40.3140718,19.1257862 40.8742138,19.6859282 41.5837269,19.8502354 C42.300708,20.0145445 43.0400953,19.7531447 43.5031447,19.1855346 L44.8176101,17.8710692 C47.1403307,20.7091195 48.6191033,24.2342767 49,28.0880503 L47.2075472,28.0880503 C47.1477987,28.0880503 47.0880503,28.0880503 47.0283019,28.0880503 C46.9685535,28.0880503 46.908805,28.0880503 46.8490566,28.0880503 C45.795991,28.185141 45.0192615,29.1261797 45.1163522,30.1792453 C45.2134429,31.2323108 46.1544816,32.0090404 47.2075472,31.9119497 L49,31.9119497 C48.6191033,35.7657233 47.1403307,39.2908805 44.8176101,42.1289308 L43.5031447,40.8144654 C43.1073118,40.3887583 42.5322337,40.1721708 41.9496855,40.2169811 C41.8899371,40.2169811 41.8301887,40.2169811 41.7704403,40.2169811 C41.0534591,40.3439461 40.478381,40.8667458 40.2767296,41.5613208 C40.0750781,42.2633657 40.2841976,43.0102211 40.8144654,43.5031447 L42.1289308,44.8176101 C39.2908805,47.1403307 35.7657233,48.6191033 31.9119497,49 L31.9119497,47.2075472 C31.9343558,46.6548752 31.7102983,46.1246074 31.3144654,45.7511788 C30.9111645,45.370284 30.3659586,45.1835687 29.8207547,45.2358491 C29.7386002,45.2507871 29.6564475,45.2731913 29.581761,45.2955975 C28.6930027,45.4972489 28.0656442,46.2963846 28.0880503,47.2075472 L28.0880503,49 C24.2342767,48.6191033 20.7091195,47.1403307 17.8710692,44.8176101 L19.1855346,43.5031447 C19.7531447,42.9579407 19.9249219,42.1139947 19.6187116,41.3895435 C19.3199695,40.6650943 18.5955184,40.202045 17.8113208,40.2169811 C17.7515723,40.2169811 17.6918239,40.2169811 17.6320755,40.2169811 C17.1989003,40.2767296 16.7955975,40.4933171 16.4968553,40.8144654 L15.1823899,42.1289308 C12.8596693,39.2908805 11.3808967,35.7657233 11,31.9119497 L12.7924528,31.9119497 C13.4795597,31.9194178 14.1218563,31.5609272 14.4728769,30.9634429 C14.8164313,30.3659586 14.8164313,29.6340414 14.4728769,29.0365571 C14.1218563,28.4390728 13.4795597,28.0805822 12.7924528,28.0880503 L11,28.0880503 C11.3808967,24.2342767 12.8596693,20.7091195 15.1823899,17.8710692 L16.4968553,19.1855346 C16.9599066,19.7531447 17.699292,20.0145445 18.4162731,19.8502354 C19.1257862,19.6859282 19.6859282,19.1257862 19.8502354,18.4162731 C20.0145445,17.699292 19.7531447,16.9599066 19.1855346,16.4968553 L17.8710692,15.1823899 C20.6941833,12.8746074 24.2044025,11.3883648 28.0283019,11 Z M30.15,21 C25.1175,21 21,25.05 21,30 C21,34.95 25.1175,39 30.15,39 C35.1825,39 39.3,34.95 39.3,30 C39.3,25.05 35.1825,21 30.15,21 Z" id="Shape" fill-rule="nonzero"></path>
            <path d="M87.7302562,17 C90.5036034,17 92.8035804,17.7199928 94.6302562,19.16 C96.456932,20.6000072 97.3702562,22.7066528 97.3702562,25.48 C97.3702562,27.346676 96.9369272,28.9333268 96.0702562,30.24 C95.2035852,31.5466732 94.0435968,32.5199968 92.5902562,33.16 C91.1369156,33.8000032 89.5169318,34.12 87.7302562,34.12 L80.3702562,34.12 L80.3702562,43.92 C80.3702562,44.2133348 80.2635906,44.4666656 80.0502562,44.68 C79.8369218,44.8933344 79.583591,45 79.2902562,45 L77.6502562,45 C77.3569214,45 77.1035906,44.8933344 76.8902562,44.68 C76.6769218,44.4666656 76.5702562,44.2133348 76.5702562,43.92 L76.5702562,18.08 C76.5702562,17.7866652 76.6769218,17.5333344 76.8902562,17.32 C77.1035906,17.1066656 77.3569214,17 77.6502562,17 L87.7302562,17 Z M87.5302562,30.52 C89.4769326,30.52 90.970251,30.1000042 92.0102562,29.26 C93.0502614,28.4199958 93.5702562,27.1600084 93.5702562,25.48 C93.5702562,22.2266504 91.556943,20.6 87.5302562,20.6 L80.3702562,20.6 L80.3702562,30.52 L87.5302562,30.52 Z M113.315897,24.2 C113.609232,24.2 113.862563,24.3066656 114.075897,24.52 C114.289232,24.7333344 114.395897,24.9866652 114.395897,25.28 L114.395897,26.56 C114.395897,26.8533348 114.289232,27.1066656 114.075897,27.32 C113.862563,27.5333344 113.609232,27.64 113.315897,27.64 L110.995897,27.64 C109.502556,27.64 108.362568,28.0333294 107.575897,28.82 C106.789227,29.6066706 106.395897,30.7466592 106.395897,32.24 L106.395897,43.92 C106.395897,44.2133348 106.289232,44.4666656 106.075897,44.68 C105.862563,44.8933344 105.609232,45 105.315897,45 L103.835897,45 C103.542562,45 103.289232,44.8933344 103.075897,44.68 C102.862563,44.4666656 102.755897,44.2133348 102.755897,43.92 L102.755897,25.28 C102.755897,24.9866652 102.862563,24.7333344 103.075897,24.52 C103.289232,24.3066656 103.542562,24.2 103.835897,24.2 L105.315897,24.2 C105.609232,24.2 105.862563,24.3066656 106.075897,24.52 C106.289232,24.7333344 106.395897,24.9866652 106.395897,25.28 L106.395897,26.52 C106.929233,25.719996 107.569227,25.1333352 108.315897,24.76 C109.062568,24.3866648 110.035891,24.2 111.235897,24.2 L113.315897,24.2 Z M122.941538,19.96 C122.941538,20.2533348 122.834873,20.5066656 122.621538,20.72 C122.408204,20.9333344 122.154873,21.04 121.861538,21.04 L119.581538,21.04 C119.288204,21.04 119.034873,20.9333344 118.821538,20.72 C118.608204,20.5066656 118.501538,20.2533348 118.501538,19.96 L118.501538,17.68 C118.501538,17.3866652 118.608204,17.1333344 118.821538,16.92 C119.034873,16.7066656 119.288204,16.6 119.581538,16.6 L121.861538,16.6 C122.154873,16.6 122.408204,16.7066656 122.621538,16.92 C122.834873,17.1333344 122.941538,17.3866652 122.941538,17.68 L122.941538,19.96 Z M122.541538,43.92 C122.541538,44.2133348 122.434873,44.4666656 122.221538,44.68 C122.008204,44.8933344 121.754873,45 121.461538,45 L119.981538,45 C119.688204,45 119.434873,44.8933344 119.221538,44.68 C119.008204,44.4666656 118.901538,44.2133348 118.901538,43.92 L118.901538,25.28 C118.901538,24.9866652 119.008204,24.7333344 119.221538,24.52 C119.434873,24.3066656 119.688204,24.2 119.981538,24.2 L121.461538,24.2 C121.754873,24.2 122.008204,24.3066656 122.221538,24.52 C122.434873,24.7333344 122.541538,24.9866652 122.541538,25.28 L122.541538,43.92 Z M138.527179,45 L137.047179,45 C136.487177,45 136.073847,44.66667 135.807179,44 L127.847179,25.44 C127.820513,25.3599996 127.807179,25.2666672 127.807179,25.16 C127.807179,24.893332 127.900512,24.6666676 128.087179,24.48 C128.273847,24.2933324 128.500511,24.2 128.767179,24.2 L130.247179,24.2 C130.887183,24.2 131.327178,24.5199968 131.567179,25.16 L137.767179,39.68 L143.967179,25.16 C144.207181,24.5199968 144.593843,24.2 145.127179,24.2 L146.767179,24.2 C147.033847,24.2 147.260512,24.2933324 147.447179,24.48 C147.633847,24.6666676 147.727179,24.893332 147.727179,25.16 C147.727179,25.2666672 147.713846,25.3599996 147.687179,25.44 L139.727179,44 C139.460511,44.66667 139.060515,45 138.527179,45 Z M164.472821,31.84 L164.472821,31.32 C164.472821,30.0133268 164.039492,29.0066702 163.172821,28.3 C162.30615,27.5933298 161.179494,27.24 159.792821,27.24 C158.726149,27.24 157.892824,27.4199982 157.292821,27.78 C156.692818,28.1400018 156.126157,28.6799964 155.592821,29.4 C155.43282,29.6133344 155.259488,29.7599996 155.072821,29.84 C154.886153,29.9200004 154.632822,29.96 154.312821,29.96 L153.112821,29.96 C152.819486,29.96 152.559488,29.8533344 152.332821,29.64 C152.106153,29.4266656 152.006154,29.1733348 152.032821,28.88 C152.112821,28.079996 152.50615,27.2866706 153.212821,26.5 C153.919491,25.7133294 154.859481,25.0666692 156.032821,24.56 C157.20616,24.0533308 158.459481,23.8 159.792821,23.8 C162.272833,23.8 164.27948,24.4933264 165.812821,25.88 C167.346162,27.2666736 168.112821,29.2133208 168.112821,31.72 L168.112821,43.92 C168.112821,44.2133348 168.006155,44.4666656 167.792821,44.68 C167.579486,44.8933344 167.326155,45 167.032821,45 L165.552821,45 C165.259486,45 165.006155,44.8933344 164.792821,44.68 C164.579486,44.4666656 164.472821,44.2133348 164.472821,43.92 L164.472821,42.28 C164.046152,43.2400048 163.139494,43.9999972 161.752821,44.56 C160.366147,45.1200028 158.979494,45.4 157.592821,45.4 C156.232814,45.4 155.019493,45.1533358 153.952821,44.66 C152.886149,44.1666642 152.066157,43.4933376 151.492821,42.64 C150.919484,41.7866624 150.632821,40.826672 150.632821,39.76 C150.632821,37.75999 151.37948,36.193339 152.872821,35.06 C154.366161,33.926661 156.352808,33.160002 158.832821,32.76 L164.472821,31.84 Z M164.472821,35.04 L159.752821,35.8 C158.019479,36.066668 156.672825,36.499997 155.712821,37.1 C154.752816,37.700003 154.272821,38.4533288 154.272821,39.36 C154.272821,40.02667 154.579484,40.626664 155.192821,41.16 C155.806157,41.693336 156.739481,41.96 157.992821,41.96 C159.91283,41.96 161.472815,41.4133388 162.672821,40.32 C163.872827,39.2266612 164.472821,37.8000088 164.472821,36.04 L164.472821,35.04 Z M183.378462,41.96 C186.045142,41.96 187.845124,40.9200104 188.778462,38.84 C188.965129,38.439998 189.151794,38.1600008 189.338462,38 C189.525129,37.8399992 189.77846,37.76 190.098462,37.76 L191.298462,37.76 C191.591796,37.76 191.845127,37.859999 192.058462,38.06 C192.271796,38.260001 192.378462,38.493332 192.378462,38.76 C192.378462,39.6666712 192.018465,40.6399948 191.298462,41.68 C190.578458,42.7200052 189.538468,43.5999964 188.178462,44.32 C186.818455,45.0400036 185.218471,45.4 183.378462,45.4 C181.485119,45.4 179.845135,45.000004 178.458462,44.2 C177.071788,43.399996 176.005132,42.300007 175.258462,40.9 C174.511791,39.499993 174.098462,37.933342 174.018462,36.2 C173.991795,35.8799984 173.978462,35.2666712 173.978462,34.36 C173.978462,33.7199968 173.991795,33.266668 174.018462,33 C174.258463,30.2799864 175.178454,28.0666752 176.778462,26.36 C178.37847,24.6533248 180.578448,23.8 183.378462,23.8 C185.218471,23.8 186.811788,24.1533298 188.158462,24.86 C189.505135,25.5666702 190.531791,26.4333282 191.238462,27.46 C191.945132,28.4866718 192.325128,29.4533288 192.378462,30.36 C192.405128,30.6533348 192.305129,30.9066656 192.078462,31.12 C191.851794,31.3333344 191.591796,31.44 191.298462,31.44 L190.098462,31.44 C189.77846,31.44 189.525129,31.3600008 189.338462,31.2 C189.151794,31.0399992 188.965129,30.760002 188.778462,30.36 C187.845124,28.2799896 186.045142,27.24 183.378462,27.24 C181.911788,27.24 180.6318,27.7333284 179.538462,28.72 C178.445123,29.7066716 177.818462,31.19999 177.658462,33.2 C177.631795,33.4933348 177.618462,33.97333 177.618462,34.64 C177.618462,35.2533364 177.631795,35.7066652 177.658462,36 C177.845129,38.00001 178.478456,39.4933284 179.558462,40.48 C180.638467,41.4666716 181.911788,41.96 183.378462,41.96 Z M203.684103,51.64 C203.444102,52.2800032 203.057439,52.6 202.524103,52.6 L200.884103,52.6 C200.617435,52.6 200.39077,52.5066676 200.204103,52.32 C200.017435,52.1333324 199.924103,51.906668 199.924103,51.64 C199.924103,51.5333328 199.937436,51.4400004 199.964103,51.36 L203.804103,43 L195.884103,25.44 C195.857436,25.3599996 195.844103,25.2666672 195.844103,25.16 C195.844103,24.893332 195.937435,24.6666676 196.124103,24.48 C196.31077,24.2933324 196.537435,24.2 196.804103,24.2 L198.444103,24.2 C198.977439,24.2 199.364102,24.5199968 199.604103,25.16 L205.764103,38.76 L212.004103,25.16 C212.244104,24.5199968 212.630767,24.2 213.164103,24.2 L214.804103,24.2 C215.070771,24.2 215.297435,24.2933324 215.484103,24.48 C215.67077,24.6666676 215.764103,24.893332 215.764103,25.16 C215.764103,25.2666672 215.75077,25.3599996 215.724103,25.44 L203.684103,51.64 Z" id="Privacy"></path>
        </g>
    </g>
</svg>