<?xml version="1.0" encoding="UTF-8"?>
<svg width="120px" height="101px" viewBox="0 0 120 101" version="1.1" xmlns="http://www.w3.org/2000/svg" xmlns:xlink="http://www.w3.org/1999/xlink">
    <!-- Generator: Sketch 52.5 (67469) - http://www.bohemiancoding.com/sketch -->
    <title>illu_tumblebit</title>
    <desc>Created with Sketch.</desc>
    <g id="News" stroke="none" stroke-width="1" fill="none" fill-rule="evenodd">
        <g id="illu_tumblebit" fill="#DCE8F1" fill-rule="nonzero">
            <path d="M66.0627616,61.3636102 C65.5162263,60.6644477 64.5961024,60.1968338 64.5961024,60.1968338 C64.5961024,60.1968338 65.5497395,59.9394515 66.0151335,59.5517475 C66.480953,59.1639565 66.8482415,58.4681772 66.9794934,58.09127 C67.1106078,57.7141248 67.6085163,56.1189105 66.6004744,54.8538523 C65.8208329,53.8750825 64.7832142,53.2914394 63.3121086,52.7978328 L64.1842643,49.5429036 L62.1773924,49.0051639 L61.3155412,52.2216366 C60.8677562,52.1016529 60.344465,51.9614375 59.7869382,51.8120486 L60.6487894,48.5955759 L58.6421051,48.0578865 L57.7802538,51.2743592 C55.7316425,50.7254354 53.8321677,50.2164727 53.8321677,50.2164727 L53.2737438,52.3005392 C53.2737438,52.3005392 54.1177255,52.5266834 54.4341952,52.6114812 C54.7505712,52.6962539 55.3038321,52.8821988 55.4712159,53.2138638 C55.6388192,53.5450849 55.6433036,53.6971833 55.5039175,54.2173793 C55.3644812,54.7377627 53.3316646,62.3247127 53.2788859,62.5216856 C53.2261323,62.7185646 53.1233188,62.9521951 52.9116403,63.066479 C52.7002434,63.1808385 52.5215256,63.1728619 52.1181065,63.0647661 C51.7147811,62.9566954 50.9178853,62.7431678 50.9178853,62.7431678 L49.8594134,65.0429938 C49.8594134,65.0429938 51.8214505,65.56872 53.8074995,66.1008802 L52.9480861,69.3082546 L54.9548642,69.8459692 L55.8142776,66.6385948 C56.4308964,66.8038173 56.9677881,66.947677 57.3428806,67.0481828 L56.4834673,70.2555571 L58.4903392,70.7932969 L59.3639274,67.5330211 C59.8908342,67.6417339 60.3850738,67.7320426 60.6771163,67.7706859 C61.2693314,67.8491459 62.6035615,68.0458023 64.0397069,67.5259389 C65.4755022,67.0058812 66.1015521,65.7563464 66.486569,64.4323749 C66.8718923,63.108385 66.6086153,62.0626905 66.0627616,61.3636102 Z M59.1788269,54.0815509 C59.1788269,54.0815509 59.8315105,54.196219 60.4573909,54.3737752 C61.0834337,54.5514755 61.6314068,54.718511 62.3890522,55.192955 C63.1462973,55.6673921 63.4677198,56.4169203 63.2908442,57.153567 C63.1134997,57.890088 62.6636951,58.2920222 62.0183528,58.4508552 C61.3728479,58.6095441 60.5496601,58.5699271 59.8103948,58.4016992 C59.0714977,58.2339722 58.1410968,57.9544122 58.1410968,57.9544122 L59.1788269,54.0815509 Z M61.100196,64.8785786 C60.572803,65.0087979 59.5933968,64.9875404 58.6851618,64.8143502 C57.7765699,64.6413658 56.4524795,64.2564176 56.4524795,64.2564176 L57.6058955,59.9518106 C57.6058955,59.9518106 58.8988842,60.2280954 59.8754916,60.5599471 C60.8517858,60.8922175 61.6186049,61.3688179 61.943169,61.657148 C62.2680464,61.9450593 62.8141826,62.5335309 62.5502891,63.518395 C62.286496,64.5028841 61.6272573,64.7484714 61.100196,64.8785786 Z M1.8750293,0 L1.92378006,0 L118.124971,0 C119.159987,0 120,0.839811848 120,1.87040501 L120,1.91903554 L120,16.7831441 L120,16.8317747 L120,16.8804052 L120,99.129595 C120,100.162059 119.158112,101 118.124971,101 L118.07622,101 L1.8750293,101 C0.840013125,101 0,100.160188 0,99.129595 L0,99.0809645 L0,16.8804052 L0,16.8317747 L0,16.7831441 L0,1.87040501 C0,0.837941443 0.841888155,0 1.8750293,0 Z M28.1216894,7.48162003 L31.871748,7.48162003 L31.871748,11.2243005 L28.1216894,11.2243005 L28.1216894,7.48162003 Z M18.7484179,7.48162003 L22.4984765,7.48162003 L22.4984765,11.2243005 L18.7484179,11.2243005 L18.7484179,7.48162003 Z M9.37514649,7.48162003 L13.1252051,7.48162003 L13.1252051,11.2243005 L9.37514649,11.2243005 L9.37514649,7.48162003 Z M116.249941,18.7059205 L3.75005859,18.7059205 L3.75005859,97.2610604 L116.249941,97.2610604 L116.249941,18.7059205 Z M3.75005859,14.9632401 L116.249941,14.9632401 L116.249941,3.74268042 L3.75005859,3.74268042 L3.75005859,14.9632401 Z M59.0727408,39.4012651 C47.7344813,39.4012651 38.6067279,48.595549 38.6067277,59.8728958 C38.6067277,71.1543381 47.7345278,80.3551951 59.0727408,80.3551951 C70.4082035,80.3551951 79.6563424,71.164167 79.6563424,59.8728958 C79.6544393,59.70092 79.6199838,59.5308515 79.5547884,59.3716389 C79.2701367,48.3288216 70.2298784,39.4012651 59.0727408,39.4012651 Z M59.0759652,43.1070554 C68.3928963,43.1070554 75.9441743,50.6085338 75.9441743,59.8731891 C75.9441743,69.1419726 68.3929402,76.6494061 59.0759652,76.6494061 C49.756,76.6494061 42.3188953,69.1515192 42.3188953,59.8731891 C42.3188953,50.5992452 49.7560466,43.1070554 59.0759652,43.1070554 Z M85.5827209,33.8337654 C85.9598727,33.8278583 86.3233458,33.9753018 86.5903215,34.2425003 C86.8572971,34.5096989 87.0050338,34.8738917 86.999869,35.2520963 L86.999869,44.7904141 L84.8359933,44.7904141 L77.4575169,44.7904141 C76.9543051,44.7975504 76.4862427,44.5324359 76.23256,44.0965882 C75.9788772,43.6607404 75.9788772,43.1216853 76.23256,42.6858376 C76.4862427,42.2499898 76.9543051,41.9848754 77.4575169,41.9920117 L82.0889062,41.9920117 C76.7234165,35.1788968 68.4315644,30.7984023 59.0929532,30.7984023 C42.9055104,30.7984023 29.8098767,43.9184837 29.7906916,60.1460998 L29.7906916,60.1624971 C29.7906875,60.1689068 29.7906916,60.1752172 29.7906916,60.1816269 L29.8315709,61.7311331 L29.9460328,63.2068524 L29.9460328,63.2232496 L30.1313521,64.6689085 L30.1340775,64.6935036 L30.2785176,65.5024168 L30.2785176,65.9943242 L29.5290642,67 L28.2781585,66.9972674 L27.5314306,65.9915915 L27.3760892,65.1143581 L27.3679135,65.0815637 L27.3651882,65.0460366 L27.1689677,63.5047297 L27.1662423,63.4692026 L27.1635171,63.4336769 L27.0436046,61.8705061 L27.0408793,61.8349804 L27.0408793,61.7994533 L27.0054505,60.321 C27.0032606,60.2864304 27.0023516,60.2517912 27.0027252,60.217154 C27.0016665,60.2053238 27.000758,60.1934804 27,60.1816269 C27,42.425112 41.3853649,28 59.0929532,28 C69.2619487,28 78.3280544,32.7602036 84.2091774,40.1719574 L84.2091774,35.2520963 C84.1986388,34.4803923 84.8131652,33.845828 85.5827209,33.8337654 Z M89.2128849,58 L90.4677868,58.2906571 L91,59.5303996 L90.9019613,62.167079 L90.8991604,62.2263961 L90.8935571,62.2857147 L90.8487391,62.6801774 L90.7030816,63.1932773 L89.6694684,64 L88.4397764,63.6055358 L88,62.3272361 L88.039216,61.9831933 L88.1316528,59.4117654 L88.2408967,58.8897684 L89.2128849,58 Z M87.6291786,68 L88.8358659,68.6994414 L89,70.0831215 L88.2218846,72.2301058 L88.2036472,72.2848459 L88.1793311,72.3395845 L87.8358663,73.0968069 L87.5288749,73.5499247 L86.2066873,74 L85.0577502,73.2123674 L85,71.8195647 L85.3100307,71.1292443 L86.0729479,69.0248352 L86.3465037,68.5504299 L87.6291786,68 Z M30.8723619,71 L31.9457286,71.8239486 L32.4884423,72.9586605 L32.4944724,72.9729147 L33.2090452,74.2900927 L33.2120604,74.2929436 L33.9809045,75.5559511 L33.9929648,75.5759085 L34.7919597,76.7562369 L35,77.2323597 L34.6592965,78.498218 L33.3809046,79 L32.1929648,78.3300076 L31.354774,77.0926592 L31.3336684,77.061297 L31.3155779,77.0299361 L30.4984924,75.687099 L30.480402,75.6557382 L30.4623117,75.6243759 L29.7115578,74.2387745 L29.6964824,74.2074122 L29.6814071,74.1760514 L29.1326633,73.0270838 L29,72.5281542 L29.5306533,71.3193158 L30.8723619,71 Z M84.0357149,77 L85,77.9395209 L84.755102,79.2109704 L83.5397953,80.7158935 L83.5122445,80.749648 L83.4816327,80.7805913 L82.1744904,82.2151896 L82.143877,82.2489456 L82.1132651,82.2798874 L81.6846945,82.6962032 L81.2408155,83 L79.8357141,82.9943745 L79,81.9563998 L79.4040808,80.721519 L79.8112243,80.3220812 L79.8326531,80.3023904 L81.0234684,78.9971863 L81.029592,78.988748 L82.2387751,77.4922632 L82.6397949,77.1462722 L84.0357149,77 Z M38.0237911,81 L39.2223096,81.3586087 L39.5117008,81.6315795 L39.5198906,81.6396076 L40.5764438,82.5388045 L40.5928234,82.552186 L41.7367402,83.4326495 L42.8342438,84.1980378 L42.8424336,84.2033898 L43.4130277,84.5646745 L43.7761314,84.8911683 L44,86.100803 L43.1482059,87 L41.903276,86.8715433 L41.3244935,86.5049066 L41.2944614,86.4861731 L41.2671606,86.4674397 L40.0631826,85.6271191 L40.0358818,85.6083856 L40.0085811,85.5869762 L38.8482833,84.6931312 L38.8209826,84.6717217 L38.7964118,84.6503123 L37.6797972,83.7029444 L37.6552263,83.6815349 L37.6306553,83.6601255 L37.2921216,83.3416597 L37,82.9536135 L37.0136505,81.7252454 L38.0237911,81 Z M76.1287426,84 L77.4640724,84.3054937 L78,85.4882292 L77.3113784,86.5980936 L75.8922155,87.4669278 L75.8562881,87.4893493 L75.8173653,87.5117708 L74.0748514,88.4422646 L74.0359287,88.4646861 L73.9940121,88.4843036 L73.1886223,88.8570619 L72.6676653,89 L71.3832336,88.5487657 L71,87.3127797 L71.8263481,86.2869949 L72.6167673,85.919843 L72.6347302,85.9114355 L74.2544914,85.0397988 L75.6317362,84.1961886 L76.1287426,84 Z M49.027325,87 L50.2899032,87.3815879 L50.2989012,87.3842562 L51.8673778,87.7818538 L51.8913698,87.7871904 L53.3758752,88.0913942 L54.7434194,88.3102065 L55.2502503,88.4783187 L56,89.5056703 L55.5231587,90.6531024 L54.2036001,91 L52.8360544,90.7811878 L52.7970683,90.7758499 L52.7610796,90.767845 L51.1266245,90.4316205 L51.0906373,90.4236157 L51.0516497,90.4156108 L49.4501831,90.0100071 L49.4141959,90.0020009 L49.3782071,89.9886595 L48.0406541,89.5883923 L47.5668117,89.3562373 L47,88.2408272 L47.6657785,87.1681123 L49.027325,87 Z M65.8708763,88 L66.9486765,88.8170343 L67,90.2649851 L65.9849293,91.176657 L64.4879834,91.5425869 L64.4452134,91.55205 L64.3995922,91.5583603 L62.4407322,91.8990536 L62.395111,91.9085183 L62.3494898,91.9116727 L61.4912421,92 L60.978003,91.9526812 L60,90.9936904 L60.1083492,89.55205 L61.2203661,88.7854889 L61.9873729,88.7066247 L63.9120163,88.3753946 L65.3576372,88.0220822 L65.8708763,88 Z" id="Shape"></path>
        </g>
    </g>
</svg>