<?xml version="1.0" encoding="UTF-8"?>
<svg width="790px" height="256px" viewBox="0 0 790 256" version="1.1" xmlns="http://www.w3.org/2000/svg" xmlns:xlink="http://www.w3.org/1999/xlink">
    <!-- Generator: Sketch 52.5 (67469) - http://www.bohemiancoding.com/sketch -->
    <title>Artboard Copy 2</title>
    <desc>Created with Sketch.</desc>
    <defs>
        <linearGradient x1="0%" y1="0.577884856%" x2="102%" y2="100.411353%" id="linearGradient-1">
            <stop stop-color="#00EAF8" offset="0%"></stop>
            <stop stop-color="#6D42EF" offset="100%"></stop>
        </linearGradient>
    </defs>
    <g id="Artboard-Copy-2" stroke="none" stroke-width="1" fill="none" fill-rule="evenodd">
        <g id="Privat_logo" transform="translate(12.000000, 13.000000)" fill="url(#linearGradient-1)" fill-rule="nonzero">
            <path d="M114.473978,223 C174.96353,223 224,174.646753 224,115 C224,55.353247 174.96353,7 114.473978,7 C62.8653294,7 19.593619,42.1973436 8,89.5760891 L29.8649423,114.160721 L8.315773,141.681016 C20.361454,188.423917 63.3228236,223 114.473978,223 Z M108.943396,47 C109.023587,47 109.077042,47 109.157233,47 L109.157233,53.4150943 C109.130505,55.8742138 110.413524,58.1729594 112.551889,59.4292436 C114.690253,60.6588067 117.309747,60.6588067 119.448111,59.4292436 C121.586476,58.1729594 122.869495,55.8742138 122.842767,53.4150943 L122.842767,47 C136.63522,48.3632093 149.251572,53.6556587 159.408805,61.9685535 L154.704403,66.672956 C152.672956,68.3301921 151.73742,70.9764134 152.325473,73.5424511 C152.91352,76.081761 154.918239,78.0864797 157.457549,78.6745266 C160.023587,79.2625803 162.669815,78.327044 164.327044,76.2955975 L169.031447,71.591195 C177.344341,81.7484277 182.636791,94.3647799 184,108.157233 L177.584906,108.157233 C177.371069,108.157233 177.157233,108.157233 176.943396,108.157233 C176.72956,108.157233 176.515723,108.157233 176.301887,108.157233 C172.533021,108.504715 169.753146,111.872643 170.100629,115.641509 C170.448111,119.410376 173.816039,122.19025 177.584906,121.842767 L184,121.842767 C182.636791,135.63522 177.344341,148.251572 169.031447,158.408805 L164.327044,153.704403 C162.910379,152.180819 160.852205,151.405664 158.767296,151.566038 C158.553459,151.566038 158.339623,151.566038 158.125786,151.566038 C155.559748,152.020439 153.501574,153.891511 152.779874,156.377358 C152.058174,158.889941 152.806602,161.562897 154.704403,163.327044 L159.408805,168.031447 C149.251572,176.344341 136.63522,181.636791 122.842767,183 L122.842767,176.584906 C122.922958,174.606922 122.121067,172.709121 120.704403,171.37264 C119.26101,170.009437 117.309747,169.341193 115.358491,169.528302 C115.064464,169.581764 114.770444,169.661948 114.503145,169.742138 C111.322325,170.463838 109.077042,173.323903 109.157233,176.584906 L109.157233,183 C95.3647799,181.636791 82.7484277,176.344341 72.591195,168.031447 L77.2955975,163.327044 C79.327044,161.375788 79.9418256,158.355349 78.8459154,155.762577 C77.776733,153.169811 75.1839606,151.512582 72.3773585,151.566038 C72.163522,151.566038 71.9496855,151.566038 71.7358491,151.566038 C70.185538,151.779874 68.7421384,152.55503 67.672956,153.704403 L62.9685535,158.408805 C54.6556587,148.251572 49.3632093,135.63522 48,121.842767 L54.4150943,121.842767 C56.8742138,121.869495 59.1729594,120.586476 60.4292436,118.448111 C61.6588067,116.309747 61.6588067,113.690253 60.4292436,111.551889 C59.1729594,109.413524 56.8742138,108.130505 54.4150943,108.157233 L48,108.157233 C49.3632093,94.3647799 54.6556587,81.7484277 62.9685535,71.591195 L67.672956,76.2955975 C69.3301921,78.327044 71.9764134,79.2625803 74.5424511,78.6745266 C77.081761,78.0864797 79.0864797,76.081761 79.6745266,73.5424511 C80.2625803,70.9764134 79.327044,68.3301921 77.2955975,66.672956 L72.591195,61.9685535 C82.694972,53.7091212 95.2578616,48.3899371 108.943396,47 Z M116,81 C97.3,81 82,96.3 82,115 C82,133.7 97.3,149 116,149 C134.7,149 150,133.7 150,115 C150,96.3 134.7,81 116,81 Z" id="Shape"></path>
        </g>
        <text id="Privacy" font-family="Rubik-Regular, Rubik" font-size="146" font-weight="normal" letter-spacing="3.74000001" fill="#6B7C93">
            <tspan x="260.065" y="180">Privacy</tspan>
        </text>
    </g>
</svg>