<?xml version="1.0" encoding="UTF-8"?>
<svg width="790px" height="256px" viewBox="0 0 790 256" version="1.1" xmlns="http://www.w3.org/2000/svg" xmlns:xlink="http://www.w3.org/1999/xlink">
    <!-- Generator: Sketch 52.5 (67469) - http://www.bohemiancoding.com/sketch -->
    <title>Artboard Copy 2</title>
    <desc>Created with Sketch.</desc>
    <defs>
        <linearGradient x1="0%" y1="0.577884856%" x2="102%" y2="100.411353%" id="linearGradient-1">
            <stop stop-color="#00EAF8" offset="0%"></stop>
            <stop stop-color="#6D42EF" offset="100%"></stop>
        </linearGradient>
    </defs>
    <g id="Artboard-Copy-2" stroke="none" stroke-width="1" fill="none" fill-rule="evenodd">
        <g id="Privat_logo" transform="translate(12.000000, 13.000000)" fill="url(#linearGradient-1)" fill-rule="nonzero">
            <path d="M114.473978,223 C174.96353,223 224,174.646753 224,115 C224,55.353247 174.96353,7 114.473978,7 C62.8653294,7 19.593619,42.1973436 8,89.5760891 L29.8649423,114.160721 L8.315773,141.681016 C20.361454,188.423917 63.3228236,223 114.473978,223 Z M108.943396,47 C109.023587,47 109.077042,47 109.157233,47 L109.157233,53.4150943 C109.130505,55.8742138 110.413524,58.1729594 112.551889,59.4292436 C114.690253,60.6588067 117.309747,60.6588067 119.448111,59.4292436 C121.586476,58.1729594 122.869495,55.8742138 122.842767,53.4150943 L122.842767,47 C136.63522,48.3632093 149.251572,53.6556587 159.408805,61.9685535 L154.704403,66.672956 C152.672956,68.3301921 151.73742,70.9764134 152.325473,73.5424511 C152.91352,76.081761 154.918239,78.0864797 157.457549,78.6745266 C160.023587,79.2625803 162.669815,78.327044 164.327044,76.2955975 L169.031447,71.591195 C177.344341,81.7484277 182.636791,94.3647799 184,108.157233 L177.584906,108.157233 C177.371069,108.157233 177.157233,108.157233 176.943396,108.157233 C176.72956,108.157233 176.515723,108.157233 176.301887,108.157233 C172.533021,108.504715 169.753146,111.872643 170.100629,115.641509 C170.448111,119.410376 173.816039,122.19025 177.584906,121.842767 L184,121.842767 C182.636791,135.63522 177.344341,148.251572 169.031447,158.408805 L164.327044,153.704403 C162.910379,152.180819 160.852205,151.405664 158.767296,151.566038 C158.553459,151.566038 158.339623,151.566038 158.125786,151.566038 C155.559748,152.020439 153.501574,153.891511 152.779874,156.377358 C152.058174,158.889941 152.806602,161.562897 154.704403,163.327044 L159.408805,168.031447 C149.251572,176.344341 136.63522,181.636791 122.842767,183 L122.842767,176.584906 C122.922958,174.606922 122.121067,172.709121 120.704403,171.37264 C119.26101,170.009437 117.309747,169.341193 115.358491,169.528302 C115.064464,169.581764 114.770444,169.661948 114.503145,169.742138 C111.322325,170.463838 109.077042,173.323903 109.157233,176.584906 L109.157233,183 C95.3647799,181.636791 82.7484277,176.344341 72.591195,168.031447 L77.2955975,163.327044 C79.327044,161.375788 79.9418256,158.355349 78.8459154,155.762577 C77.776733,153.169811 75.1839606,151.512582 72.3773585,151.566038 C72.163522,151.566038 71.9496855,151.566038 71.7358491,151.566038 C70.185538,151.779874 68.7421384,152.55503 67.672956,153.704403 L62.9685535,158.408805 C54.6556587,148.251572 49.3632093,135.63522 48,121.842767 L54.4150943,121.842767 C56.8742138,121.869495 59.1729594,120.586476 60.4292436,118.448111 C61.6588067,116.309747 61.6588067,113.690253 60.4292436,111.551889 C59.1729594,109.413524 56.8742138,108.130505 54.4150943,108.157233 L48,108.157233 C49.3632093,94.3647799 54.6556587,81.7484277 62.9685535,71.591195 L67.672956,76.2955975 C69.3301921,78.327044 71.9764134,79.2625803 74.5424511,78.6745266 C77.081761,78.0864797 79.0864797,76.081761 79.6745266,73.5424511 C80.2625803,70.9764134 79.327044,68.3301921 77.2955975,66.672956 L72.591195,61.9685535 C82.694972,53.7091212 95.2578616,48.3899371 108.943396,47 Z M116,81 C97.3,81 82,96.3 82,115 C82,133.7 97.3,149 116,149 C134.7,149 150,133.7 150,115 C150,96.3 134.7,81 116,81 Z" id="Shape"></path>
        </g>
        <path d="M313.355,77.8 C323.477717,77.8 331.872633,80.4279737 338.54,85.684 C345.207367,90.9400263 348.541,98.6292827 348.541,108.752 C348.541,115.565367 346.959349,121.356643 343.796,126.126 C340.632651,130.895357 336.398693,134.447988 331.094,136.784 C325.789307,139.120012 319.876366,140.288 313.355,140.288 L286.491,140.288 L286.491,176.058 C286.491,177.128672 286.101671,178.053329 285.323,178.832 C284.544329,179.610671 283.619672,180 282.549,180 L276.563,180 C275.492328,180 274.567671,179.610671 273.789,178.832 C273.010329,178.053329 272.621,177.128672 272.621,176.058 L272.621,81.742 C272.621,80.671328 273.010329,79.7466706 273.789,78.968 C274.567671,78.1893294 275.492328,77.8 276.563,77.8 L313.355,77.8 Z M312.625,127.148 C319.730369,127.148 325.180981,125.615015 328.977,122.549 C332.773019,119.482985 334.671,114.884031 334.671,108.752 C334.671,96.877274 327.322407,90.94 312.625,90.94 L286.491,90.94 L286.491,127.148 L312.625,127.148 Z M406.739,104.08 C407.809672,104.08 408.734329,104.469329 409.513,105.248 C410.291671,106.026671 410.681,106.951328 410.681,108.022 L410.681,112.694 C410.681,113.764672 410.291671,114.689329 409.513,115.468 C408.734329,116.246671 407.809672,116.636 406.739,116.636 L398.271,116.636 C392.820306,116.636 388.659348,118.071652 385.788,120.943 C382.916652,123.814348 381.481,127.975306 381.481,133.426 L381.481,176.058 C381.481,177.128672 381.091671,178.053329 380.313,178.832 C379.534329,179.610671 378.609672,180 377.539,180 L372.137,180 C371.066328,180 370.141671,179.610671 369.363,178.832 C368.584329,178.053329 368.195,177.128672 368.195,176.058 L368.195,108.022 C368.195,106.951328 368.584329,106.026671 369.363,105.248 C370.141671,104.469329 371.066328,104.08 372.137,104.08 L377.539,104.08 C378.609672,104.08 379.534329,104.469329 380.313,105.248 C381.091671,106.026671 381.481,106.951328 381.481,108.022 L381.481,112.548 C383.427676,109.627985 385.763653,107.486673 388.489,106.124 C391.214347,104.761327 394.766978,104.08 399.147,104.08 L406.739,104.08 Z M441.869,88.604 C441.869,89.674672 441.479671,90.5993294 440.701,91.378 C439.922329,92.1566706 438.997672,92.546 437.927,92.546 L429.605,92.546 C428.534328,92.546 427.609671,92.1566706 426.831,91.378 C426.052329,90.5993294 425.663,89.674672 425.663,88.604 L425.663,80.282 C425.663,79.211328 426.052329,78.2866706 426.831,77.508 C427.609671,76.7293294 428.534328,76.34 429.605,76.34 L437.927,76.34 C438.997672,76.34 439.922329,76.7293294 440.701,77.508 C441.479671,78.2866706 441.869,79.211328 441.869,80.282 L441.869,88.604 Z M440.409,176.058 C440.409,177.128672 440.019671,178.053329 439.241,178.832 C438.462329,179.610671 437.537672,180 436.467,180 L431.065,180 C429.994328,180 429.069671,179.610671 428.291,178.832 C427.512329,178.053329 427.123,177.128672 427.123,176.058 L427.123,108.022 C427.123,106.951328 427.512329,106.026671 428.291,105.248 C429.069671,104.469329 429.994328,104.08 431.065,104.08 L436.467,104.08 C437.537672,104.08 438.462329,104.469329 439.241,105.248 C440.019671,106.026671 440.409,106.951328 440.409,108.022 L440.409,176.058 Z M498.753,180 L493.351,180 C491.30699,180 489.798338,178.783345 488.825,176.35 L459.771,108.606 C459.673666,108.313999 459.625,107.973335 459.625,107.584 C459.625,106.610662 459.965663,105.783337 460.647,105.102 C461.328337,104.420663 462.155662,104.08 463.129,104.08 L468.531,104.08 C470.867012,104.08 472.472996,105.247988 473.349,107.584 L495.979,160.582 L518.609,107.584 C519.485004,105.247988 520.896324,104.08 522.843,104.08 L528.829,104.08 C529.802338,104.08 530.629663,104.420663 531.311,105.102 C531.992337,105.783337 532.333,106.610662 532.333,107.584 C532.333,107.973335 532.284334,108.313999 532.187,108.606 L503.133,176.35 C502.159662,178.783345 500.699676,180 498.753,180 Z M593.451,131.966 L593.451,130.068 C593.451,125.298643 591.869349,121.624346 588.706,119.045 C585.542651,116.465654 581.430359,115.176 576.369,115.176 C572.475647,115.176 569.434011,115.832993 567.244,117.147 C565.053989,118.461007 562.985676,120.431987 561.039,123.06 C560.454997,123.838671 559.822337,124.373999 559.141,124.666 C558.459663,124.958001 557.535006,125.104 556.367,125.104 L551.987,125.104 C550.916328,125.104 549.967337,124.714671 549.14,123.936 C548.312663,123.157329 547.947666,122.232672 548.045,121.162 C548.337001,118.241985 549.772654,115.346348 552.352,112.475 C554.931346,109.603652 558.362312,107.243343 562.645,105.394 C566.927688,103.544657 571.502309,102.62 576.369,102.62 C585.421045,102.62 592.745305,105.150641 598.342,110.212 C603.938695,115.273359 606.737,122.378621 606.737,131.528 L606.737,176.058 C606.737,177.128672 606.347671,178.053329 605.569,178.832 C604.790329,179.610671 603.865672,180 602.795,180 L597.393,180 C596.322328,180 595.397671,179.610671 594.619,178.832 C593.840329,178.053329 593.451,177.128672 593.451,176.058 L593.451,170.072 C591.893659,173.576018 588.584359,176.34999 583.523,178.394 C578.461641,180.43801 573.400359,181.46 568.339,181.46 C563.374975,181.46 558.946353,180.559676 555.053,178.759 C551.159647,176.958324 548.166677,174.500682 546.074,171.386 C543.981323,168.271318 542.935,164.767353 542.935,160.874 C542.935,153.573963 545.660306,147.855687 551.111,143.719 C556.561694,139.582313 563.812955,136.784007 572.865,135.324 L593.451,131.966 Z M593.451,143.646 L576.223,146.42 C569.896302,147.393338 564.981018,148.974989 561.477,151.165 C557.972982,153.355011 556.221,156.10465 556.221,159.414 C556.221,161.847346 557.340322,164.037324 559.579,165.984 C561.817678,167.930676 565.22431,168.904 569.799,168.904 C576.807035,168.904 582.500978,166.908687 586.881,162.918 C591.261022,158.927313 593.451,153.720032 593.451,147.296 L593.451,143.646 Z M662.453,168.904 C672.186382,168.904 678.756316,165.108038 682.163,157.516 C682.844337,156.055993 683.525663,155.034003 684.207,154.45 C684.888337,153.865997 685.812994,153.574 686.981,153.574 L691.361,153.574 C692.431672,153.574 693.356329,153.938996 694.135,154.669 C694.913671,155.399004 695.303,156.250662 695.303,157.224 C695.303,160.53335 693.989013,164.085981 691.361,167.882 C688.732987,171.678019 684.937025,174.889987 679.973,177.518 C675.008975,180.146013 669.169034,181.46 662.453,181.46 C655.542299,181.46 649.556359,180.000015 644.495,177.08 C639.433641,174.159985 635.540347,170.145026 632.815,165.035 C630.089653,159.924974 628.581001,154.206698 628.289,147.88 C628.191666,146.711994 628.143,144.47335 628.143,141.164 C628.143,138.827988 628.191666,137.173338 628.289,136.2 C629.165004,126.27195 632.522971,118.193364 638.363,111.964 C644.203029,105.734636 652.232949,102.62 662.453,102.62 C669.169034,102.62 674.984642,103.909654 679.9,106.489 C684.815358,109.068346 688.562654,112.231648 691.142,115.979 C693.721346,119.726352 695.108332,123.25465 695.303,126.564 C695.400334,127.634672 695.035337,128.559329 694.208,129.338 C693.380663,130.116671 692.431672,130.506 691.361,130.506 L686.981,130.506 C685.812994,130.506 684.888337,130.214003 684.207,129.63 C683.525663,129.045997 682.844337,128.024007 682.163,126.564 C678.756316,118.971962 672.186382,115.176 662.453,115.176 C657.09964,115.176 652.427687,116.976649 648.437,120.578 C644.446313,124.179351 642.159003,129.629964 641.575,136.93 C641.477666,138.000672 641.429,139.752655 641.429,142.186 C641.429,144.424678 641.477666,146.079328 641.575,147.15 C642.256337,154.450037 644.56798,159.900649 648.51,163.502 C652.45202,167.103351 657.09964,168.904 662.453,168.904 Z M738.901,204.236 C738.024996,206.572012 736.613676,207.74 734.667,207.74 L728.681,207.74 C727.707662,207.74 726.880337,207.399337 726.199,206.718 C725.517663,206.036663 725.177,205.209338 725.177,204.236 C725.177,203.846665 725.225666,203.506001 725.323,203.214 L739.339,172.7 L710.431,108.606 C710.333666,108.313999 710.285,107.973335 710.285,107.584 C710.285,106.610662 710.625663,105.783337 711.307,105.102 C711.988337,104.420663 712.815662,104.08 713.789,104.08 L719.775,104.08 C721.721676,104.08 723.132996,105.247988 724.009,107.584 L746.493,157.224 L769.269,107.584 C770.145004,105.247988 771.556324,104.08 773.503,104.08 L779.489,104.08 C780.462338,104.08 781.289663,104.420663 781.971,105.102 C782.652337,105.783337 782.993,106.610662 782.993,107.584 C782.993,107.973335 782.944334,108.313999 782.847,108.606 L738.901,204.236 Z" id="Privacy" fill="#6B7C93"></path>
    </g>
</svg>